<svg width="267" height="267" xmlns="http://www.w3.org/2000/svg" xmlns:xlink="http://www.w3.org/1999/xlink" xml:space="preserve" overflow="hidden"><defs><clipPath id="clip0"><rect x="4108" y="1120" width="267" height="267"/></clipPath></defs><g clip-path="url(#clip0)" transform="translate(-4108 -1120)"><path d="M296.213 162.693C296.213 236.436 236.433 296.213 162.693 296.213 88.9588 296.213 29.1756 236.436 29.1756 162.693 29.1756 88.9528 88.9588 29.1786 162.693 29.1786 236.433 29.1786 296.213 88.9528 296.213 162.693" fill="#7BD4F6" transform="matrix(1 0 0 1 4078.84 1090.84)"/><path d="M235.814 163.213C236.078 160.819 235.507 158.637 233.997 157.124L184.85 107.98C181.49 104.617 174.785 105.869 169.879 110.772 164.974 115.68 163.724 122.382 167.087 125.742L190.691 149.349 102.076 149.349C95.1377 149.349 89.5148 154.975 89.5148 161.91 89.5148 168.848 95.1377 174.471 102.076 174.471L193.298 174.471 167.087 200.684C163.724 204.047 164.974 210.749 169.879 215.655 174.785 220.56 181.49 221.81 184.85 218.45L233.997 169.302C235.507 167.793 236.078 165.608 235.814 163.213" fill="#FFFFFF" transform="matrix(1 0 0 1 4078.84 1090.84)"/></g></svg>